<?xml version="1.0" encoding="utf-8"?>
<!-- Generator: Adobe Illustrator 18.1.1, SVG Export Plug-In . SVG Version: 6.00 Build 0)  -->
<svg version="1.1" id="Layer_1" xmlns="http://www.w3.org/2000/svg" xmlns:xlink="http://www.w3.org/1999/xlink" x="0px" y="0px"
	 viewBox="0 0 400 326" enable-background="new 0 0 400 326" xml:space="preserve">
<g>
	<path d="M223,214.4L211.6,203v-32.1h-23.5V188h8.3v26.4h-60.6V188h11.2v-50.2h-11.2v-26.5h101.3l17.1,17.1v21.3L239.1,161
		l15.2,11.5v19.1h9.6v22.7H223z M211.6,137.8h-23.5v17.1h23.5V137.8z"/>
	<path d="M254.3,27v53.9l-22.8,22.7H170l-22.7-22.7V27h-11.2V0.4h62.1V27h-9.8v50.2H223V27h-8.5V0.4H264V27H254.3z"/>
	<path d="M383.9,62.8h-59.6V77h11.2v26.4H272V77h11.2V26.8H272V0.3H382l18,18v28.3L383.9,62.8z M359.3,26.8h-35v18h35V26.8z"/>
	<path d="M376.9,214.4H299L272,188v-50.3l26.9-26.4h61.4l7.7,9.6l7.5-9.6H400v43.4h-32v-17h-54V188h54v-17.3h32v21.2L376.9,214.4z"
		/>
	<path d="M252.7,325.7H135.9v-26.4h11.2v-50.2h-11.2v-26.5h63.4v26.5h-11.2v50.2h43.9V266h32v47.4L252.7,325.7z"/>
	<path d="M388.7,325.7H271.9v-26.4h11.2v-50.2h-11.2v-26.5h63.4v26.5h-11.2v50.2H368V266h32v47.4L388.7,325.7z"/>
	<path d="M108.1,103.5H36.6l-8.5-9l-7.5,9H0V72.1h28.8V81h53.8v-15H18.6L0,48.8V23.4l21.3-23h64.2l8.5,9l7.5-9h20.6v31.4H93.4V23
		H44.6v15H107l21.1,19.8v24.1L108.1,103.5z"/>
	<path d="M116.6,214.4H0V188h11.2v-50.2H0v-26.5h116.6l11.3,12.4v35.7H96v-21.6H52.2v15.4h18.9v19.1H52.2V188H96v-21.6h32v35.7
		L116.6,214.4z"/>
	<path d="M116.6,325.7H0v-26.4h11.2v-50.2H0v-26.5h116.6L128,235v35.7H96v-21.6H52.2v15.4h18.9v19.1H52.2v15.6H96v-21.6h32v35.7
		L116.6,325.7z"/>
</g>
</svg>
